<svg version="1.2" xmlns="http://www.w3.org/2000/svg" viewBox="0 0 30 30" width="50" height="50">
	<title>responsive (1)-svg</title>
	<style>
		.s0 { fill: #ffffff } 
	</style>
	<path id="Layer" fill-rule="evenodd" class="s0" d="m28.5 10c0.8 0 1.5 0.7 1.5 1.5v14c0 0.8-0.7 1.5-1.5 1.5h-8c-0.8 0-1.5-0.7-1.5-1.5v-14c0-0.8 0.7-1.5 1.5-1.5zm-8.5 1.5v14c0 0.3 0.2 0.5 0.5 0.5h8c0.3 0 0.5-0.2 0.5-0.5v-14c0-0.3-0.2-0.5-0.5-0.5h-8c-0.3 0-0.5 0.2-0.5 0.5zm5.5-8.5c0.8 0 1.5 0.7 1.5 1.5v4c0 0.7-1 0.7-1 0v-4c0-0.3-0.2-0.5-0.5-0.5h-24c-0.3 0-0.5 0.2-0.5 0.5v12.5h16.5c0.3 0 0.5 0.2 0.5 0.5 0 0.3-0.2 0.5-0.5 0.5h-16.5v2.5c0 0.3 0.2 0.5 0.5 0.5h16c0.7 0 0.7 1 0 1h-1.5v2h1.5c0.3 0 0.5 0.2 0.5 0.5 0 0.3-0.2 0.5-0.5 0.5h-8c-0.3 0-0.5-0.2-0.5-0.5 0-0.3 0.2-0.5 0.5-0.5h1.5v-2h-9.5c-0.8 0-1.5-0.7-1.5-1.5v-16c0-0.8 0.7-1.5 1.5-1.5zm-2 9h2c0.3 0 0.5 0.2 0.5 0.5 0 0.3-0.2 0.5-0.5 0.5h-2c-0.3 0-0.5-0.2-0.5-0.5 0-0.3 0.2-0.5 0.5-0.5zm-9.5 7.5c0 0.3-0.2 0.5-0.5 0.5-0.3 0-0.5-0.2-0.5-0.5 0-0.3 0.2-0.5 0.5-0.5 0.3 0 0.5 0.2 0.5 0.5zm11 5c0 0.3-0.2 0.5-0.5 0.5-0.3 0-0.5-0.2-0.5-0.5 0-0.3 0.2-0.5 0.5-0.5 0.3 0 0.5 0.2 0.5 0.5zm-13-0.5h3v-2h-3z"/>
</svg>